# xmcd CD database file
#
# Track frame offsets:
#	150
#	10341
#	20308
#	31788
#	44473
#	58786
#	73530
#	88950
#	102196
#	113736
#	128479
#	140520
#	153228
#	166640
#	178695
#	189559
#	198478
#	209021
#
# Disc length: 2974 seconds
#
# Revision: 0
# Processed by: cddbd v1.5.2PL0 Copyright (c) Steve Scherf et al.
# Submitted via: CDex 1.79
#
DISCID=f20b9c12
DTITLE=Benny Goodman - Jazz Giants CD1
DYEAR=2004
DGENRE=Jazz
TTITLE0=Dear Old Southland
TTITLE1=Farewell Blues
TTITLE2=Hooray For Love
TTITLE3=(I Would Do) Anything For You
TTITLE4=And The Angels Sing
TTITLE5=Always and Always
TTITLE6=Estrellita
TTITLE7=Cuckoo In The Clock
TTITLE8=Feelin' High and Happy
TTITLE9=(I've Been) Saving Myself For You
TTITLE10=Don't Wake Up My Heart
TTITLE11=Down Home Rag
TTITLE12=Hunkadola
TTITLE13=Could You Pass In Love?
TTITLE14=Changes
TTITLE15=Eeny Meeny Mine
TTITLE16=Did You Mean It?
TTITLE17=Chloe
EXTD=YEAR: 2004
EXTT0=
EXTT1=
EXTT2=
EXTT3=
EXTT4=
EXTT5=
EXTT6=
EXTT7=
EXTT8=
EXTT9=
EXTT10=
EXTT11=
EXTT12=
EXTT13=
EXTT14=
EXTT15=
EXTT16=
EXTT17=
PLAYORDER=
